<svg xmlns="http://www.w3.org/2000/svg" width="64" height="64" viewBox="0 0 64 64">
    <g fill="none" fill-rule="evenodd">
        <path fill="#2A0E3F" fill-rule="nonzero" d="M54.678 37.818l-5.242-21.493c-.816-3.346-3.68-5.787-6.964-5.935a7.404 7.404 0 0 0-5.5 2.059 7.398 7.398 0 0 0-2.305 5.394v3.775h-5.334v-3.775a7.395 7.395 0 0 0-2.305-5.393 7.396 7.396 0 0 0-5.5-2.059c-3.284.148-6.148 2.589-6.964 5.935L9.32 37.82A10.597 10.597 0 0 0 8 42.95c0 5.882 4.785 10.667 10.667 10.667 5.705 0 10.365-4.506 10.64-10.144.007-.045.026-.085.026-.13v-8.392h5.334v8.391c0 .044.02.082.025.124.272 5.641 4.934 10.15 10.641 10.15C51.215 53.618 56 48.834 56 42.952c0-1.86-.48-3.609-1.322-5.133zM18.667 51.84c-4.902 0-8.89-3.988-8.89-8.889a8.82 8.82 0 0 1 1.736-5.253c.047-.064.093-.128.142-.19a8.954 8.954 0 0 1 1.52-1.533c.05-.04.103-.076.154-.115.249-.188.507-.363.774-.523.048-.03.095-.06.144-.088a8.902 8.902 0 0 1 2.004-.845c.07-.02.143-.038.215-.056a8.81 8.81 0 0 1 .849-.173c.089-.014.177-.03.266-.04.359-.045.72-.074 1.086-.074 4.901 0 8.889 3.988 8.889 8.89 0 .07-.01.138-.011.208l-.009.147v.005c-.19 4.734-4.09 8.529-8.87 8.529zm8.157-15.748c-.07-.082-.145-.158-.217-.238a10.403 10.403 0 0 0-.899-.893c-.204-.18-.416-.352-.633-.517-.102-.076-.201-.155-.305-.228-.286-.2-.58-.387-.886-.558-.04-.022-.077-.05-.117-.071-.347-.19-.706-.356-1.074-.507-.108-.044-.22-.08-.33-.12a10.615 10.615 0 0 0-1.224-.373c-.278-.066-.559-.12-.844-.163-.126-.02-.251-.044-.38-.058-.41-.048-.825-.08-1.248-.08-.338 0-.674.019-1.007.05-.136.013-.27.036-.405.054-.19.026-.378.05-.564.086-.168.032-.333.072-.497.11a10.513 10.513 0 0 0-.97.28 12.895 12.895 0 0 0-.911.358c-.11.049-.216.103-.324.156-.18.09-.361.177-.537.276-.098.055-.192.117-.288.176-.177.107-.355.212-.525.328-.044.03-.085.066-.13.097-.203.145-.407.29-.6.449l4.382-17.958c.63-2.585 2.817-4.468 5.317-4.58a5.584 5.584 0 0 1 4.191 1.568 5.63 5.63 0 0 1 1.757 4.107V37.06c-.008-.01-.016-.018-.023-.029a10.6 10.6 0 0 0-.709-.939zm2.51-2.919v-9.777h5.333v9.777h-5.334zm7.11 3.887V17.843c0-1.567.624-3.025 1.757-4.108a5.637 5.637 0 0 1 4.191-1.568c2.5.113 4.687 1.996 5.317 4.58l4.38 17.957c-.4-.328-.83-.619-1.274-.886-.089-.054-.175-.11-.265-.161-.178-.101-.363-.191-.548-.282-.104-.05-.206-.103-.312-.15-.18-.081-.364-.155-.55-.226a11 11 0 0 0-.897-.301c-.144-.041-.29-.078-.435-.112-.165-.04-.33-.08-.499-.11-.185-.036-.374-.06-.563-.087-.135-.017-.27-.04-.406-.053a10.505 10.505 0 0 0-1.007-.052c-.423 0-.839.032-1.249.08-.128.016-.252.039-.38.058a10.547 10.547 0 0 0-1.248.267c-.278.078-.55.169-.819.268-.11.041-.222.077-.33.121-.368.151-.728.318-1.074.507-.04.022-.077.049-.117.071-.305.172-.6.358-.886.558-.104.073-.203.151-.305.229a10.702 10.702 0 0 0-1.532 1.41c-.072.08-.148.156-.217.238-.252.3-.49.611-.71.938-.006.013-.014.022-.022.031zm8.89 14.78c-4.78 0-8.68-3.795-8.87-8.528v-.005l-.009-.147c-.002-.07-.01-.138-.01-.209 0-4.901 3.987-8.889 8.888-8.889.366 0 .727.029 1.086.074.09.01.177.027.266.04.287.045.571.102.85.174.071.019.143.035.213.055.703.2 1.376.484 2.006.847.047.027.092.056.14.084.269.162.53.338.78.528.05.037.1.072.148.11a8.89 8.89 0 0 1 1.526 1.538 8.74 8.74 0 0 1 .677 1.004 8.823 8.823 0 0 1 1.197 4.435c0 4.901-3.987 8.889-8.889 8.889z"/>
        <path d="M0 0h64v64H0z"/>
    </g>
</svg>
