<svg xmlns="http://www.w3.org/2000/svg" width="64" height="64" viewBox="0 0 64 64">
    <g fill="#FFF" fill-rule="nonzero">
        <path d="M22.5 45c1.93 0 3.5-1.57 3.5-3.5S24.43 38 22.5 38 19 39.57 19 41.5s1.57 3.5 3.5 3.5zm0-5.25c.965 0 1.75.785 1.75 1.75s-.785 1.75-1.75 1.75-1.75-.785-1.75-1.75.785-1.75 1.75-1.75zM43.5 17c-1.93 0-3.5 1.57-3.5 3.5s1.57 3.5 3.5 3.5 3.5-1.57 3.5-3.5-1.57-3.5-3.5-3.5zm0 5.25c-.965 0-1.75-.785-1.75-1.75s.785-1.75 1.75-1.75 1.75.785 1.75 1.75-.785 1.75-1.75 1.75z"/>
        <path d="M22.5 47c3.584 0 6.5-2.916 6.5-6.5S26.084 34 22.5 34a6.508 6.508 0 0 0-6.5 6.5c0 3.584 2.916 6.5 6.5 6.5zm0-11.375a4.88 4.88 0 0 1 4.875 4.875 4.88 4.88 0 0 1-4.875 4.875 4.88 4.88 0 0 1-4.875-4.875 4.88 4.88 0 0 1 4.875-4.875z"/>
        <path d="M56.322 37.76c.1-.422.19-.847.267-1.277l.014-.067.001-.015a24.865 24.865 0 0 0-1.563-14.1c-.005-.014-.005-.03-.011-.043a24.921 24.921 0 0 0-3.87-6.292 25.225 25.225 0 0 0-3.07-3.08 24.898 24.898 0 0 0-6.348-3.915c-.013-.006-.027-.006-.04-.01a24.844 24.844 0 0 0-13.95-1.593h-.007l-.07.014c-.338.06-.674.124-1.007.196l-.055.014c-1.331.293-2.621.694-3.864 1.19-.114.046-.23.089-.343.136-.187.078-.37.162-.554.244-.18.08-.36.159-.538.243-.145.07-.288.142-.431.213l-.12.06c-.011.005-.024.005-.036.01-.05.025-.097.054-.147.08-.117.06-.232.122-.348.184-.102.055-.204.11-.305.167-.119.066-.239.129-.356.196-.14.08-.275.164-.413.247l-.213.13c-.29.177-.576.361-.86.55l-.086.059c-.148.1-.297.199-.442.302l-.058.043c-.31.221-.617.45-.917.686l-.03.022-.005.006a25.05 25.05 0 0 0-3.765 3.656c-.015.017-.022.039-.035.058A24.872 24.872 0 0 0 7 32c0 2.496.372 4.906 1.057 7.182v.018c.009.027.019.052.026.078.139.454.287.903.45 1.345.058.157.124.31.184.466.101.258.203.516.312.77.112.26.23.516.35.772.057.119.113.238.171.356a24.878 24.878 0 0 0 11.472 11.468c.111.055.225.108.337.162.261.122.523.243.788.356.242.105.487.2.733.297.167.066.332.137.502.198.438.161.883.309 1.331.445l.087.03c.01.003.02.001.03.004A24.885 24.885 0 0 0 32 57c4.162 0 8.087-1.028 11.543-2.835.023-.01.046-.014.069-.026.06-.032.117-.068.178-.1.202-.109.4-.224.6-.338.187-.107.376-.21.56-.322a24.11 24.11 0 0 0 1.037-.666c.145-.099.285-.205.429-.306.226-.161.452-.322.673-.49.124-.095.246-.193.368-.29a24.737 24.737 0 0 0 1.842-1.604c.033-.031.066-.061.098-.094.402-.39.794-.79 1.169-1.207.012-.012.03-.017.042-.031a24.878 24.878 0 0 0 4.404-6.925c.04-.092.075-.185.112-.277.09-.218.182-.435.266-.656.003-.009.002-.018.004-.026.363-.96.666-1.949.91-2.96l.018-.086zm-8.455 11.328c-.209.194-.423.382-.639.569-.081.07-.162.143-.245.213-.17.143-.344.28-.518.418-.133.106-.265.213-.4.315-.134.101-.27.199-.406.297a24.36 24.36 0 0 1-.381.272 3.91 3.91 0 0 0-.236-2.424 3.909 3.909 0 0 0-3.004-2.312l-.871-.135V44.82l.828-.158a3.912 3.912 0 0 0 2.916-2.424 3.909 3.909 0 0 0-.49-3.759l-.521-.71 1.047-1.049 1.068.724a3.918 3.918 0 0 0 3.707.377 3.918 3.918 0 0 0 2.355-2.889l.243-1.265h1.48l.135.871c.117.763.442 1.45.947 2.012a22.904 22.904 0 0 1-.819 3.01 5.423 5.423 0 0 0-6.23 5.356c0 1.156.367 2.255 1.035 3.174-.296.31-.597.616-.91.91-.03.03-.06.06-.091.087zm5.238-7.168a23.618 23.618 0 0 1-3.097 4.88 3.723 3.723 0 0 1-.508-1.883 3.755 3.755 0 0 1 3.938-3.745c-.094.218-.187.436-.287.651l-.046.097zm-9.438-11.587c-5.515 0-10-4.485-10-10 0-4.605 3.202-8.648 7.653-9.718a23.374 23.374 0 0 1 4.558 2.64c.028.022.056.04.084.062.229.171.451.35.674.53.072.057.146.113.216.171.167.139.329.283.491.425.119.104.24.204.356.31.062.057.121.117.183.174.423.394.831.802 1.225 1.226.046.05.093.096.139.146.11.121.215.248.322.371.139.158.28.314.414.477.06.073.118.15.178.225.178.22.354.44.523.666.024.03.045.063.069.095a23.35 23.35 0 0 1 2.635 4.55c-1.073 4.449-5.115 7.65-9.72 7.65zM26.357 9.362c-.131.62-.081 1.275.16 1.89a3.294 3.294 0 0 0 2.456 2.04l.527.101v.905l-.556.085a3.293 3.293 0 0 0-2.53 1.947 3.29 3.29 0 0 0 .293 3.18l.301.445-.64.64-.147-.11a3.285 3.285 0 0 0-3.224-.388 3.286 3.286 0 0 0-2.005 2.554l-.028.182h-.904l-.102-.526a3.292 3.292 0 0 0-2.04-2.457 3.297 3.297 0 0 0-3.166.412l-.454.332-.64-.638.301-.445a3.25 3.25 0 0 0 .424-2.785c.084-.096.165-.193.25-.288a23.9 23.9 0 0 1 1.356-1.388c.11-.103.224-.205.336-.307.478 1.774 2.086 3.09 4.008 3.09a4.171 4.171 0 0 0 4.167-4.166 4.13 4.13 0 0 0-1.506-3.19c.51-.213 1.03-.406 1.554-.583l.162-.055c.543-.178 1.09-.339 1.647-.477zm-8.515 4.115c.067-.052.131-.106.2-.157.335-.25.68-.487 1.029-.72.168-.112.334-.23.505-.337l.065-.041c.352-.221.715-.424 1.078-.625.16-.089.315-.184.476-.268a2.482 2.482 0 0 1 1.638 2.338c0 1.378-1.121 2.5-2.5 2.5a2.503 2.503 0 0 1-2.491-2.69zm.089 15.286c.024-.007.049-.004.073-.014.03-.011.05-.035.077-.049 1.479-.56 3.08-.867 4.752-.867 7.352 0 13.334 5.982 13.334 13.334 0 1.91-.407 3.726-1.129 5.374-.007.014-.02.023-.027.038-.009.018-.006.038-.013.057a13.245 13.245 0 0 1-9.9 7.655l-.007-.002a23.17 23.17 0 0 1-1.215-.416c-.188-.07-.372-.146-.557-.22a23.473 23.473 0 0 1-1.31-.57l-.266-.13A23.487 23.487 0 0 1 10.582 41.25c-.082-.19-.16-.38-.236-.572-.074-.184-.15-.368-.22-.555-.148-.401-.29-.806-.417-1.218v-.004a13.243 13.243 0 0 1 8.222-10.138zm10.504 26.298a14.853 14.853 0 0 0 7.75-7.048l1.31.581a.836.836 0 0 0 1.102-.422.833.833 0 0 0-.425-1.1l-1.303-.58c.623-1.657.964-3.453.964-5.325 0-1.624-.267-3.184-.746-4.65l1.048-.407a.833.833 0 1 0-.603-1.552l-1.056.41a15.079 15.079 0 0 0-6.804-7.136l.59-1.327a.833.833 0 1 0-1.524-.677l-.59 1.33a14.89 14.89 0 0 0-5.315-.991c-1.623 0-3.182.268-4.65.742l-.406-1.044a.833.833 0 1 0-1.553.604l.403 1.037a14.857 14.857 0 0 0-7.688 8.06A23.415 23.415 0 0 1 8.667 32a23.18 23.18 0 0 1 3.139-11.667.8.8 0 0 0 .187.315l1.632 1.63c.29.292.75.327 1.082.084l1.03-.755a1.611 1.611 0 0 1 1.571-.205c.535.21.905.655 1.014 1.22l.231 1.203c.076.392.42.675.819.675h2.307c.412 0 .761-.3.824-.707l.136-.887c.088-.574.46-1.047.995-1.268a1.626 1.626 0 0 1 1.601.193l.724.53a.832.832 0 0 0 1.082-.083l1.632-1.63a.833.833 0 0 0 .1-1.057l-.687-1.015a1.617 1.617 0 0 1-.146-1.58c.23-.527.688-.88 1.256-.966l1.262-.194a.833.833 0 0 0 .709-.823v-2.309c0-.399-.284-.743-.677-.818l-1.202-.231a1.612 1.612 0 0 1-1.22-1.013 1.614 1.614 0 0 1 .204-1.571l.087-.118A23.416 23.416 0 0 1 32 8.667c2.397 0 4.71.364 6.888 1.038a11.636 11.636 0 0 0-2.85 1.82l-.62-.62a.832.832 0 1 0-1.179 1.178l.627.627a11.67 11.67 0 0 0-2.83 6.79h-.87a.833.833 0 1 0 0 1.666h.877a11.599 11.599 0 0 0 2.817 6.795l-.62.62a.832.832 0 1 0 1.178 1.179l.62-.62a11.601 11.601 0 0 0 6.795 2.817v.876a.833.833 0 1 0 1.667 0v-.87a11.67 11.67 0 0 0 6.79-2.829l.626.627a.831.831 0 0 0 1.178 0 .832.832 0 0 0 0-1.178l-.62-.621a11.664 11.664 0 0 0 1.821-2.85A23.257 23.257 0 0 1 55.333 32c0 .215-.01.427-.016.642a.827.827 0 0 0-.801-.642h-2.884c-.4 0-.744.283-.819.677l-.373 1.942a2.228 2.228 0 0 1-1.356 1.663 2.224 2.224 0 0 1-2.134-.218l-1.637-1.11a.834.834 0 0 0-1.057.101l-2.04 2.04a.835.835 0 0 0-.083 1.083l.945 1.287a2.25 2.25 0 0 1 .281 2.164 2.252 2.252 0 0 1-1.678 1.395l-1.504.29a.832.832 0 0 0-.677.818v2.885c0 .41.3.76.707.823l1.578.243c.77.119 1.418.615 1.73 1.331a2.252 2.252 0 0 1-.2 2.174l-.855 1.26A23.191 23.191 0 0 1 32 55.333c-1.212 0-2.402-.093-3.565-.272z"/>
    </g>
</svg>
