<svg xmlns="http://www.w3.org/2000/svg" width="64" height="64" viewBox="0 0 64 64">
    <path fill="#FFF" fill-rule="nonzero" d="M46.956 11.51l.042-.028-1.125-.694c-.066-.04-.136-.074-.202-.115a26.1 26.1 0 0 0-1.125-.641c-.193-.104-.388-.202-.584-.3a24.716 24.716 0 0 0-.868-.418c-.173-.08-.345-.16-.518-.235-.455-.196-.915-.38-1.382-.55-.096-.036-.194-.065-.29-.1a25.68 25.68 0 0 0-3.045-.856c-.045-.01-.088-.021-.133-.03-.523-.11-1.052-.2-1.585-.277-.118-.017-.237-.03-.354-.045a25.613 25.613 0 0 0-1.26-.13c-.143-.012-.285-.025-.428-.033A23.738 23.738 0 0 0 32.5 7a25.772 25.772 0 0 0-2.173.099c-.537.045-1.07.102-1.597.181l-.158.023a25.165 25.165 0 0 0-2.086.42c-.477.115-.95.242-1.417.384-.148.045-.294.094-.44.142a24.634 24.634 0 0 0-1.8.66c-.469.194-.933.396-1.388.616-.15.073-.296.153-.445.229-.355.18-.705.368-1.05.564-.173.098-.345.195-.516.297-.431.26-.856.53-1.27.813-.057.039-.118.071-.174.111l-.463.321.004.019C11.154 16.517 7 24.031 7 32.5 7 46.56 18.44 58 32.5 58S58 46.56 58 32.5c0-8.696-4.38-16.386-11.044-20.99zm-27.13.86c.274-.173.552-.34.833-.502.155-.09.31-.183.467-.27.395-.215.795-.417 1.2-.609.175-.083.351-.16.53-.24.296-.131.594-.256.895-.376.166-.066.33-.135.499-.197a22.8 22.8 0 0 1 1.304-.44c.16-.05.325-.093.487-.138.34-.096.683-.186 1.03-.266.154-.037.309-.075.464-.108.475-.102.954-.19 1.436-.262.11-.016.22-.027.33-.043a24.434 24.434 0 0 1 1.656-.165c.513-.031 1.026-.054 1.543-.054.45 0 .898.015 1.346.04.128.008.255.02.382.03.322.023.644.05.965.087.142.016.283.036.424.055a22.538 22.538 0 0 1 2.292.417c.117.027.235.053.351.082.391.097.78.204 1.165.322.04.012.079.021.118.033.412.127.818.268 1.222.417.161.06.32.126.479.19.235.092.467.187.7.287a25.165 25.165 0 0 1 1.516.724c-3.249 1.302-5.267 2.898-7.525 5.836-.32.416-.483.925-.468 1.433-.195-.469-.48-.826-.862-1.076-.787-.516-1.817-.48-3.147.113l-.242.028c-1.705.19-2.645.295-2.73 2.15-.043.939.46 1.865 1.282 2.36.208.125.427.216.65.27a.91.91 0 0 0 .116.247l.343.474.546-.091a5.92 5.92 0 0 1 1.126-.089c-.04.378.027.764.197 1.108a1.89 1.89 0 0 0 1.144.98c.48.149.52.292.579.49.272.94.893 1.634 1.702 1.904.774.259 1.633.091 2.361-.455.437-.33.685-.262 1.64.2.622.3 1.398.676 2.403.805.158.02.253.068.287.104.691.726 1.222 1.629 1.734 2.502.786 1.337 1.528 2.6 2.805 3.263.998.52-.12 3.45-.657 4.86-.108.283-.209.548-.293.784-1.295.998-2.087 2.13-2.853 3.227-.685.982-1.394 1.998-2.493 2.943-1.66 1.429-3.065 2.285-4.695 2.865a.446.446 0 0 1-.505-.139.422.422 0 0 1-.05-.496c1.676-3.003 3.616-7.236 1.105-9.315-2.462-2.036-3.383-4.993-2.35-7.532.44-1.077-.05-2.286-1.136-2.854-.093-.113-.159-.607-.202-.934-.096-.718-.215-1.612-.746-2.391-.221-.323-.618-.615-.89-.747-1.038-.509-2.034-.654-2.998-.793-.766-.112-1.491-.218-2.23-.5-2.817-1.081-4.821-5.65-6.285-8.987-.209-.478-.41-.936-.604-1.365l.307-.196zM32.5 56.3c-13.123 0-23.8-10.677-23.8-23.8 0-7.715 3.693-14.583 9.402-18.934l.464 1.05c1.672 3.812 3.753 8.556 7.232 9.89.915.352 1.77.477 2.595.596.872.126 1.696.246 2.496.639.065.031.198.135.232.177.304.446.386 1.061.465 1.656.11.821.234 1.752 1.065 2.192.27.143.507.432.385.73-1.32 3.24-.205 6.963 2.84 9.484.78.646 1.153 2.416-1.506 7.176a2.123 2.123 0 0 0 .237 2.423 2.146 2.146 0 0 0 2.373.643c1.84-.655 3.405-1.605 5.234-3.178 1.262-1.085 2.033-2.19 2.78-3.258.752-1.078 1.465-2.098 2.632-2.957a1.01 1.01 0 0 0 .363-.489c.091-.268.212-.584.345-.933.874-2.291 2.194-5.755-.148-6.973-.842-.438-1.435-1.447-2.123-2.616-.535-.912-1.143-1.945-1.968-2.814-.32-.336-.77-.55-1.3-.618-.732-.094-1.316-.377-1.882-.65-.932-.452-2.094-1.013-3.4-.03-.198.15-.496.303-.802.203-.272-.09-.494-.37-.608-.764-.165-.57-.509-1.27-1.71-1.641a.202.202 0 0 1-.122-.112.344.344 0 0 1-.002-.276c.16-.438.094-.88-.182-1.214-.304-.367-.845-.556-1.616-.568a.839.839 0 0 0-.223-.4l-.516-.472-.58.342c-.15.09-.32.078-.505-.034-.286-.17-.475-.51-.46-.825a3.05 3.05 0 0 1 .032-.37c.208-.06.705-.117 1.188-.17l.516-.059.125-.058c.759-.352 1.367-.46 1.625-.292.105.069.441.399.403 1.765l-.021.754.746.11c.97.146 1.689-.043 2.137-.558.463-.532.547-1.321.247-2.346a.542.542 0 0 1 .098-.465c2.352-3.06 4.326-4.469 8.082-5.766C51.936 16.732 56.3 24.114 56.3 32.5c0 13.123-10.677 23.8-23.8 23.8z"/>
</svg>
