<svg xmlns="http://www.w3.org/2000/svg" width="32" height="32" viewBox="0 0 32 32">
    <g fill="#FFF" fill-rule="evenodd">
        <rect width="32" height="32" fill-opacity=".5" rx="4"/>
        <g fill-rule="nonzero">
            <path d="M15.6 13.6c-1.102 0-2 .897-2 2s.898 2 2 2c1.103 0 2-.897 2-2s-.897-2-2-2z"/>
            <path d="M23.218 19.609a3.646 3.646 0 0 1-3.641 3.642h-7.154a3.646 3.646 0 0 1-3.641-3.642v-7.153a3.646 3.646 0 0 1 3.641-3.642h7.154a3.646 3.646 0 0 1 3.641 3.642v7.153zM19.546 10.4h-7.093a2.056 2.056 0 0 0-2.053 2.053v7.093c0 1.133.921 2.054 2.053 2.054h7.093a2.056 2.056 0 0 0 2.054-2.054v-7.093a2.056 2.056 0 0 0-2.054-2.053zM16 19.687A3.691 3.691 0 0 1 12.313 16 3.691 3.691 0 0 1 16 12.313 3.691 3.691 0 0 1 19.687 16 3.692 3.692 0 0 1 16 19.687zm3.805-6.612a.873.873 0 0 1 0-1.744.873.873 0 0 1 0 1.744z"/>
        </g>
    </g>
</svg>
