<svg xmlns="http://www.w3.org/2000/svg" width="32" height="32" viewBox="0 0 32 32">
    <g fill="none" fill-rule="evenodd">
        <rect width="32" height="32" fill="#FFF" fill-opacity=".5" rx="4"/>
        <path fill="#F1F2F2" fill-rule="nonzero" d="M23.033 16.97v4.87h-2.847v-4.543c0-1.14-.412-1.92-1.443-1.92-.787 0-1.254.525-1.46 1.033-.076.181-.095.433-.095.688v4.742H14.34s.038-7.694 0-8.49h2.848v1.202c-.005.01-.013.02-.019.028h.02v-.028c.378-.577 1.053-1.402 2.566-1.402 1.874 0 3.278 1.213 3.278 3.82zM11.361 9.258c-.975 0-1.612.634-1.612 1.466 0 .816.619 1.468 1.574 1.468h.019c.993 0 1.61-.652 1.61-1.468-.018-.832-.617-1.466-1.591-1.466zM9.918 21.84h2.847v-8.49H9.918v8.49z"/>
    </g>
</svg>
