<svg xmlns="http://www.w3.org/2000/svg" width="64" height="64" viewBox="0 0 64 64">
    <g fill="#FFF" fill-rule="nonzero">
        <path d="M34.125 27.125h-5.25v-5.25a.875.875 0 0 0-1.75 0v5.25h-5.25a.875.875 0 0 0 0 1.75h5.25v5.25a.875.875 0 0 0 1.75 0v-5.25h5.25a.875.875 0 0 0 0-1.75z"/>
        <path d="M54.754 54.498l-13.11-13.713a18.629 18.629 0 0 0 5.415-13.15C47.059 17.359 38.747 9 28.529 9 18.313 9 10 17.359 10 27.635c0 10.275 8.312 18.634 18.53 18.634 4.485 0 8.6-1.612 11.809-4.288l13.143 13.747a.878.878 0 0 0 1.248.025.892.892 0 0 0 .024-1.255zm-42.99-26.863c0-9.297 7.521-16.86 16.766-16.86 9.244 0 16.764 7.563 16.764 16.86 0 9.296-7.52 16.86-16.764 16.86-9.245 0-16.765-7.564-16.765-16.86z"/>
    </g>
</svg>
