<svg xmlns="http://www.w3.org/2000/svg" width="64" height="64" viewBox="0 0 64 64">
    <g fill="none" fill-rule="evenodd">
        <path d="M0 0h64v64H0z"/>
        <g fill="#2A0E3F" fill-rule="nonzero">
            <path d="M19.818 23h7.364c.452 0 .818-.447.818-1 0-.553-.366-1-.818-1h-7.364c-.452 0-.818.447-.818 1 0 .553.366 1 .818 1zM19.857 29h4.286c.474 0 .857-.447.857-1 0-.553-.383-1-.857-1h-4.286c-.474 0-.857.447-.857 1 0 .553.383 1 .857 1zM30.778 29h5.444c.43 0 .778-.447.778-1 0-.553-.348-1-.778-1h-5.444c-.43 0-.778.447-.778 1 0 .553.348 1 .778 1zM27.71 28.708c.18-.191.29-.453.29-.714 0-.263-.11-.525-.29-.715a1.042 1.042 0 0 0-1.42 0c-.181.19-.29.452-.29.715 0 .261.109.523.29.714.189.19.439.292.71.292.26 0 .52-.11.71-.292zM39 29c.27 0 .52-.11.71-.292.18-.191.29-.453.29-.714 0-.263-.11-.525-.29-.715a1.042 1.042 0 0 0-1.42 0c-.181.19-.29.452-.29.715 0 .261.109.523.29.714.189.19.439.292.71.292zM23 33c0 .553.348 1 .778 1h5.444c.43 0 .778-.447.778-1 0-.553-.348-1-.778-1h-5.444c-.43 0-.778.447-.778 1zM20.71 33.708a1.02 1.02 0 0 0 .29-.714c0-.263-.101-.525-.29-.715a1.042 1.042 0 0 0-1.42 0 .996.996 0 0 0-.29.715c0 .261.109.523.29.714.189.181.45.292.71.292.26 0 .52-.11.71-.292zM24.822 37.099c-1.708.918-2.282 2.674-2.492 4.494l-.967-.837c-.764-.661-1.873.471-1.102 1.139l2.187 1.893c.513.443 1.306.163 1.33-.57.057-1.743.137-3.817 1.83-4.728.891-.48.104-1.87-.786-1.391z"/>
            <path d="M29.702 40.348c-1.128.277-2.41 1.797-3.204.091-.463-.995-1.868-.122-1.406.87.422.906 1.221 1.54 2.173 1.668.483.065.92-.008 1.374-.195.333-.137 1.576-1.129 1.845-.619.511.97 1.918.101 1.406-.87-.437-.83-1.322-1.158-2.188-.945z"/>
            <path d="M51.655 8h-3.166a2.34 2.34 0 0 0-2.204 1.567H33.571v-.784A.784.784 0 0 0 32.786 8h-7.072a.784.784 0 0 0-.785.783v.784H10V55h38.5v-3.512l.786 1.37v1.359c0 .433.35.783.785.783.435 0 .786-.35.786-.783v-1.359L54 47.375V10.338A2.344 2.344 0 0 0 51.655 8zm-3.94 7.05h4.714v1.567h-4.715V15.05zM32 9.567v2.35h-5.5v-2.35H32zm-7.071 1.566v2.35h8.642v-2.35H37.5V14.267H21V11.133h3.929zm-4.715 4.7h18.857v-.783H43v34.467H15.5V15.05h3.929v.783h.785zm26.715 37.6H11.57v-42.3h7.858v2.35h-5.5v37.6H44.57v-37.6h-5.5v-2.35h7.072V47.375l.786 1.37v4.688zm1.353-5.483h3.579l-1.79 3.12-1.571-2.74-.218-.38zm4.147-1.567h-4.715v-28.2h4.715v28.2zm-4.715-32.9v-3.145c0-.425.348-.771.774-.771h3.166c.427 0 .775.346.775.771v3.145h-4.715z"/>
        </g>
    </g>
</svg>
