<svg xmlns="http://www.w3.org/2000/svg" width="64" height="64" viewBox="0 0 64 64">
    <g fill="#2A0E3F" fill-rule="nonzero">
        <path d="M24.114 31.303C22.22 29.173 19.694 28 17 28s-5.22 1.173-7.114 3.303c-3.848 4.328-3.848 11.368 0 15.696L17 55l7.114-8c3.848-4.329 3.848-11.369 0-15.697zm-1.25 14.595L17 52.493l-5.864-6.595c-3.31-3.72-3.31-9.774 0-13.494 1.572-1.769 3.655-2.743 5.864-2.743 2.208 0 4.292.974 5.864 2.743 3.309 3.72 3.309 9.773 0 13.494zM47.5 27l5.344-5.946c2.875-3.2 2.875-8.403 0-11.602C51.422 7.871 49.524 7 47.5 7c-2.024 0-3.922.87-5.344 2.452-2.875 3.2-2.875 8.403 0 11.602L47.5 27zm-4.107-16.464c1.103-1.228 2.562-1.904 4.107-1.904 1.545 0 3.004.676 4.107 1.904 2.338 2.601 2.338 6.833 0 9.434L47.5 24.541l-4.107-4.57c-2.338-2.602-2.338-6.834 0-9.435zM50.453 52.02c-.378-.096-.753.171-.838.598a2.91 2.91 0 0 1-.465 1.101c-.239.344-.187.842.118 1.112A.65.65 0 0 0 49.7 55a.673.673 0 0 0 .552-.302 4.623 4.623 0 0 0 .73-1.732c.086-.427-.151-.85-.53-.947zM32.974 33.257c-.327 0-.646-.068-.947-.2-.388-.17-.828.054-.977.503-.149.45.047.954.437 1.125.474.208.973.314 1.486.315h.27c.419 0 .757-.39.757-.871 0-.482-.338-.872-.757-.872h-.269zM31.776 27c.14 0 .28-.037.408-.114a2.717 2.717 0 0 1 1.126-.38.761.761 0 0 0 .685-.834.771.771 0 0 0-.854-.668 4.269 4.269 0 0 0-1.777.6.744.744 0 0 0-.247 1.04c.148.23.4.356.659.356zM22.25 55h-1.5c-.415 0-.75.447-.75 1 0 .553.335 1 .75 1h1.5c.415 0 .75-.447.75-1 0-.553-.336-1-.75-1zM36.911 40c-.064 0-.128.002-.192.006-.414.022-.735.487-.718 1.037.015.537.348.957.748.957l.032-.001 1.469-.004c.415 0 .75-.446.75-.997 0-.552-.335-.998-.75-.998h-1.339zM36.75 27h1.5c.415 0 .75-.447.75-1 0-.553-.335-1-.75-1h-1.5c-.415 0-.75.447-.75 1 0 .553.335 1 .75 1zM46.75 40c-.415 0-.75.447-.75 1 0 .553.335 1 .75 1h1.5c.415 0 .75-.447.75-1 0-.553-.335-1-.75-1h-1.5zM49 34c0-.553-.335-1-.75-1h-1.5c-.415 0-.75.447-.75 1 0 .553.335 1 .75 1h1.5c.414 0 .75-.447.75-1zM41.75 42h1.5c.415 0 .75-.447.75-1 0-.553-.335-1-.75-1h-1.5c-.415 0-.75.447-.75 1 0 .553.336 1 .75 1zM43.25 27c.415 0 .75-.447.75-1 0-.553-.335-1-.75-1h-1.5c-.415 0-.75.447-.75 1 0 .553.335 1 .75 1h1.5zM36.75 33c-.415 0-.75.447-.75 1 0 .553.335 1 .75 1h1.5c.415 0 .75-.447.75-1 0-.553-.335-1-.75-1h-1.5zM44 34c0-.553-.335-1-.75-1h-1.5c-.415 0-.75.447-.75 1 0 .553.335 1 .75 1h1.5c.414 0 .75-.447.75-1zM56.938 36.635c-.08-.412-.552-.693-1.05-.625-.5.066-.84.453-.76.864a2.208 2.208 0 0 1-.092 1.16c-.14.4.137.819.623.936.086.02.173.03.258.03.397 0 .762-.213.88-.542a3.473 3.473 0 0 0 .141-1.823zM42.25 55h-1.5c-.415 0-.75.447-.75 1 0 .553.335 1 .75 1h1.5c.415 0 .75-.447.75-1 0-.553-.336-1-.75-1zM37.25 55h-1.5c-.415 0-.75.447-.75 1 0 .553.335 1 .75 1h1.5c.415 0 .75-.447.75-1 0-.553-.336-1-.75-1zM46 49c0-.553-.335-1-.75-1h-1.5c-.415 0-.75.447-.75 1 0 .553.335 1 .75 1h1.5c.414 0 .75-.447.75-1zM41 49c0-.553-.335-1-.75-1h-1.5c-.415 0-.75.447-.75 1 0 .553.335 1 .75 1h1.5c.414 0 .75-.447.75-1zM47.217 55h-1.46c-.419 0-.757.447-.757 1 0 .553.338 1 .757 1l1.49-.001.023-1v1c.418 0 .73-.447.73-1 0-.552-.365-.999-.783-.999zM50.153 51a.8.8 0 0 0 .523-.197c.369-.316.432-.896.143-1.296a4.803 4.803 0 0 0-1.593-1.41c-.422-.228-.929-.04-1.137.415-.209.457-.037 1.01.381 1.238a3.04 3.04 0 0 1 1.015.898c.168.231.416.352.668.352zM52.948 40.067a2.39 2.39 0 0 1-1.026.23h-.163c-.42 0-.759.38-.759.852 0 .47.34.851.759.851h.163c.558 0 1.101-.123 1.613-.364.387-.182.568-.68.406-1.114-.162-.433-.61-.638-.993-.455zM30.381 31.962c.472-.13.729-.557.574-.953a2.255 2.255 0 0 1-.131-1.16c.062-.414-.287-.793-.78-.844-.508-.047-.943.242-1.004.655a3.551 3.551 0 0 0 .206 1.82c.125.318.476.52.854.52.093 0 .189-.011.281-.038zM27.25 55h-1.5c-.415 0-.75.447-.75 1 0 .553.335 1 .75 1h1.5c.415 0 .75-.447.75-1 0-.553-.336-1-.75-1zM35.16 49c.32 0 .623-.203.764-.547.192-.471.008-1.027-.413-1.242a3.028 3.028 0 0 1-1.03-.877c-.299-.396-.827-.447-1.182-.114-.354.333-.4.924-.102 1.32a4.74 4.74 0 0 0 1.616 1.375.77.77 0 0 0 .348.085zM53.616 33.56a4.182 4.182 0 0 0-1.785-.558.773.773 0 0 0-.12 1.54c.402.032.783.15 1.132.354a.77.77 0 0 0 1.053-.28.774.774 0 0 0-.28-1.056zM32.25 55h-1.5c-.415 0-.75.447-.75 1 0 .553.335 1 .75 1h1.5c.415 0 .75-.447.75-1 0-.553-.336-1-.75-1zM33.418 44.361c.071-.404.22-.777.443-1.11.234-.349.166-.84-.152-1.099-.319-.256-.766-.182-1 .168a4.53 4.53 0 0 0-.696 1.746c-.074.426.18.837.568.92.045.01.09.014.135.014.336-.002.636-.263.702-.639z"/>
        <path d="M47.5 19c2.48 0 4.5-2.02 4.5-4.5S49.98 10 47.5 10 43 12.02 43 14.5s2.02 4.5 4.5 4.5zm0-7.364a2.867 2.867 0 0 1 2.864 2.864 2.867 2.867 0 0 1-2.864 2.864 2.867 2.867 0 0 1-2.864-2.864 2.867 2.867 0 0 1 2.864-2.864zM17 33c-2.758 0-5 2.242-5 5s2.242 5 5 5 5-2.242 5-5-2.242-5-5-5zm0 8.333A3.337 3.337 0 0 1 13.667 38 3.337 3.337 0 0 1 17 34.667 3.337 3.337 0 0 1 20.333 38 3.337 3.337 0 0 1 17 41.333z"/>
    </g>
</svg>
