<svg xmlns="http://www.w3.org/2000/svg" width="64" height="64" viewBox="0 0 64 64">
    <g fill="#FFF" fill-rule="nonzero">
        <path d="M38 50c-1.654 0-3 1.346-3 3s1.346 3 3 3 3-1.346 3-3-1.347-3-3-3zm0 4.286A1.287 1.287 0 0 1 36.714 53c0-.709.577-1.286 1.286-1.286.709 0 1.286.577 1.286 1.286 0 .709-.577 1.286-1.286 1.286zM41.5 39c1.93 0 3.5-1.57 3.5-3.5S43.43 32 41.5 32 38 33.57 38 35.5s1.569 3.5 3.5 3.5zm0-5.25c.965 0 1.75.785 1.75 1.75s-.785 1.75-1.75 1.75-1.75-.785-1.75-1.75.785-1.75 1.75-1.75zM20.75 17a.748.748 0 0 0 .53-.22l1.5-1.5a.75.75 0 1 0-1.06-1.06l-1.5 1.5a.75.75 0 0 0 .53 1.28z"/>
        <path d="M51 32.285c0-.748-.287-1.45-.809-1.98l-.466-.473a3.842 3.842 0 0 0 1.274-2.857c0-2.11-1.692-3.825-3.77-3.825-.153 0-.304.015-.453.034.019-.153.034-.304.034-.46 0-2.108-1.692-3.824-3.77-3.824-.153 0-.304.015-.453.034.018-.153.033-.304.033-.46 0-2.108-1.691-3.824-3.77-3.824-.153 0-.303.015-.453.034.019-.152.034-.304.034-.46 0-2.108-1.692-3.824-3.77-3.824a3.742 3.742 0 0 0-2.818 1.293l-.665-.675-3.153-3.199a2.734 2.734 0 0 0-3.903 0L13.806 18.284a2.834 2.834 0 0 0 0 3.96l3.153 3.199 4.114 4.173a3.823 3.823 0 0 0-1.913 3.308c0 1.329.673 2.5 1.69 3.186.051.07.111.137.19.206l9.013 9.108v1.526h-1.676V58h21.785V46.95h-1.676v-2.575a7.2 7.2 0 0 0 2.514-5.5 7.276 7.276 0 0 0-1.287-4.125l.478-.485a2.802 2.802 0 0 0 .809-1.98zm-1.676-5.31c0 .652-.296 1.257-.785 1.654l-2.942-2.984a2.083 2.083 0 0 1 1.632-.796c1.155 0 2.095.953 2.095 2.126zm-4.19-4.25c0 .652-.296 1.257-.784 1.655l-2.942-2.985a2.083 2.083 0 0 1 1.631-.796c1.156 0 2.096.953 2.096 2.126zm-4.189-4.25c0 .652-.296 1.257-.785 1.655l-2.942-2.985a2.083 2.083 0 0 1 1.632-.796c1.155 0 2.095.954 2.095 2.126zM34.661 12.1c1.156 0 2.095.953 2.095 2.125 0 .652-.297 1.257-.785 1.655l-2.942-2.985a2.085 2.085 0 0 1 1.632-.795zm-19.67 8.943a1.114 1.114 0 0 1 0-1.556L25.307 9.022c.105-.106.227-.186.357-.24.059-.024.125-.024.187-.037.149-.032.296-.032.446 0 .062.013.128.013.186.037.13.054.252.134.357.24l1.969 1.997-11.85 12.02-1.968-1.996zm15.002-8.823l.987 1.002 4.19 4.25.48.487 3.71 3.763.48.487 3.709 3.763.48.487 4.19 4.25.787.799c.423.429.423 1.126 0 1.555l-.366.372-9.95 10.094a1.075 1.075 0 0 1-1.534 0l-6.682-6.78h.835c2.079 0 3.77-1.716 3.77-3.825 0-2.108-1.691-3.824-3.77-3.824h-8.376l-4.79-4.859 11.85-12.02zm-7.515 18.632l.348-.04c.034-.005.069-.013.104-.013h8.379c1.155 0 2.095.953 2.095 2.125 0 1.173-.94 2.125-2.095 2.125H22.93c-1.155 0-2.095-.952-2.095-2.125.001-1.014.706-1.861 1.643-2.072zM30.053 56.3v-7.65h7.06c2.575 0 4.67 2.126 4.67 4.738V56.3h-11.73zm18.433 0H43.46v-2.912c0-1.875-.8-3.56-2.065-4.738h7.092v7.65zm.021-20.325c.532.868.817 1.872.817 2.9a5.508 5.508 0 0 1-2.18 4.413l-.333.255v3.407H31.728v-2.31l-.296-.254a2.694 2.694 0 0 0-.15-.12l-7.439-7.516h4.26l7.868 7.981a2.733 2.733 0 0 0 3.904 0l8.632-8.756z"/>
    </g>
</svg>
