<svg xmlns="http://www.w3.org/2000/svg" width="64" height="64" viewBox="0 0 64 64">
    <path fill="#FFF" fill-rule="nonzero" d="M50 21.6l-4.791-4.8h-12.31v-.88A4.001 4.001 0 0 0 32.1 8a4.001 4.001 0 0 0-.798 7.92v.88h-6.276a2.514 2.514 0 0 0-2.508 2.514V21.6H19.79L15 26.4l4.791 4.8h11.511V48H27.31v3.2h-2.395V56h14.374v-4.8h-2.396V48H32.9V31.2h7.075a2.514 2.514 0 0 0 2.508-2.514V26.4h2.727L50 21.6zM29.705 12a2.4 2.4 0 0 1 2.396-2.4 2.4 2.4 0 0 1 0 4.8 2.4 2.4 0 0 1-2.396-2.4zm7.986 40.8v1.6H26.51v-1.6h11.18zm-2.396-1.6h-6.389v-1.6h6.389v1.6zm5.59-22.514a.913.913 0 0 1-.911.914H20.453l-3.195-3.2 3.195-3.2h19.521c.502 0 .911.41.911.914v4.572zm1.597-3.886v-.686a2.514 2.514 0 0 0-2.508-2.514h-15.86v-2.286c0-.504.41-.914.912-.914h19.521l3.195 3.2-3.195 3.2h-2.065z"/>
</svg>
