<svg xmlns="http://www.w3.org/2000/svg" width="64" height="64" viewBox="0 0 64 64">
    <path fill="#2A0E3F" fill-rule="nonzero" d="M52.488 43.638l-7.655-3.232c-.18-.088-.38-.303-.552-.59l5.112-.003c.089.009 2.196.196 3.886-.512.64-.268 1.116-.799 1.307-1.456a2.219 2.219 0 0 0-.334-1.926c-1.46-2.027-4.87-7.323-4.977-12.694-.002-.093-.31-9.227-9.564-9.301-1.363.01-2.622.236-3.768.65a6.321 6.321 0 0 0-1.166-1.877C33.17 10.907 30.558 10 27.017 10c-3.542 0-6.153.907-7.762 2.696-1.855 2.062-1.682 4.563-1.638 4.982v4.062a3.002 3.002 0 0 0-.784 2.005v3.054c0 .93.434 1.796 1.173 2.374.718 2.77 2.22 4.857 2.744 5.527v2.527a2.01 2.01 0 0 1-1.079 1.771l-6.988 3.716C10.411 43.924 9 46.241 9 48.764V52h47v-2.823c0-2.361-1.346-4.483-3.512-5.539zm-9.021 6.835h-32.9v-1.71c0-1.963 1.098-3.767 2.866-4.706l6.988-3.716a3.534 3.534 0 0 0 1.896-3.114v-3.069l-.183-.212c-.019-.022-1.939-2.286-2.671-5.395l-.071-.302-.267-.168A1.515 1.515 0 0 1 18.4 26.8v-3.055c0-.428.186-.827.525-1.126l.258-.227v-4.756l-.007-.1c-.002-.02-.268-2.137 1.258-3.834 1.298-1.443 3.513-2.175 6.583-2.175 3.059 0 5.27.726 6.569 2.16a4.915 4.915 0 0 1 1.168 2.348c.011.054.023.108.032.16a9.528 9.528 0 0 1 .044.294c.012.094.022.186.028.27v.02a7.012 7.012 0 0 1 .014.447v.023c-.003.18-.016.287-.016.289l-.006 4.854.259.228c.338.298.524.697.524 1.125V26.8c0 .667-.448 1.25-1.114 1.45l-.39.117-.125.378a15.83 15.83 0 0 1-2.22 4.363c-.233.321-.459.606-.656.824l-.195.216v3.15c0 .194.02.383.05.57.007.04.018.077.026.117a3.51 3.51 0 0 0 .159.552c.06.16.132.314.215.462l.027.051c.114.196.245.381.395.552l.179.215h.03c.269.258.578.483.929.654l7.483 3.647c1.876.913 3.04 2.75 3.04 4.795v1.56zm10.966 0h-9.4v-1.56c0-2.627-1.497-4.987-3.905-6.161l-5.372-2.62c.132-.294.15-.632.033-.957a1.334 1.334 0 0 0-1.277-.886h-1.736c-.036-.062-.06-.13-.089-.196-.039-.087-.085-.174-.111-.266a1.947 1.947 0 0 1-.076-.529v-2.581c.18-.214.368-.458.563-.727a17.316 17.316 0 0 0 2.314-4.428c1.105-.494 1.823-1.56 1.823-2.762v-3.055c0-.735-.282-1.447-.783-2.004v-4.062c.02-.19.064-.816-.066-1.633 1.009-.387 2.14-.586 3.36-.596 7.71.062 7.99 7.492 7.998 7.805.115 5.79 3.718 11.399 5.262 13.541a.726.726 0 0 1 .109.632.718.718 0 0 1-.42.47c-1.315.551-3.1.395-3.192.39h-5.392c-.504 0-.963.25-1.228.668-.265.417-.29.925-.068 1.362.246.482.679 1.125 1.39 1.471l7.636 3.224c1.62.798 2.627 2.391 2.627 4.164v1.296z"/>
</svg>
