<svg xmlns="http://www.w3.org/2000/svg" width="91" height="36" viewBox="0 0 91 36">
    <defs>
        <linearGradient id="a" x1="0%" x2="79.885%" y1="50%" y2="50%">
            <stop offset="0%" stop-color="#4E5BF0"/>
            <stop offset="100%" stop-color="#A74EDF"/>
        </linearGradient>
        <linearGradient id="b" x1="100%" x2="0%" y1="50%" y2="50%">
            <stop offset="0%" stop-color="#FD42CE"/>
            <stop offset="100%" stop-color="#A74EDF"/>
        </linearGradient>
    </defs>
    <g fill="none" fill-rule="evenodd">
        <rect width="24.327" height="36" fill="#2B0D3F" rx="5"/>
        <g fill="#2B0D3F">
            <path d="M31.535 19.805v-2.161c.266.021.576.021.842.021.775 0 1.396-.28 1.396-1.448V4.673h2.437v11.37c0 3.027-1.662 3.806-3.5 3.806-.444 0-.776 0-1.175-.044zm7.687-15.132h2.438v11.674c0 1.08.487 1.47 1.263 1.47.775 0 1.263-.39 1.263-1.47V4.673h2.304v11.522c0 2.421-1.24 3.805-3.634 3.805-2.393 0-3.634-1.384-3.634-3.805V4.673zm13.76 0l1.794 10.744 1.662-10.744h3.39v15.132h-2.304V8.953L55.84 19.805h-2.305l-1.817-10.7v10.7h-2.127V4.673h3.39zm13.67 0c2.437 0 3.634 1.319 3.634 3.74v1.967c0 2.421-1.197 3.74-3.634 3.74H65.5v5.685h-2.438V4.673h3.59zm0 2.162H65.5v5.123h1.152c.775 0 1.196-.346 1.196-1.427v-2.27c0-1.08-.42-1.426-1.196-1.426zm11.033 2.4V8.39c0-1.362-.487-1.73-1.263-1.73-.775 0-1.263.412-1.263 1.492v.973h-2.304v-.821c0-2.421 1.24-3.805 3.634-3.805 2.393 0 3.634 1.384 3.634 3.805v.389c0 1.621-.532 2.637-1.706 3.113 1.218.519 1.706 1.643 1.706 3.178v1.189c0 2.42-1.241 3.804-3.634 3.804s-3.634-1.383-3.634-3.804V14.92h2.304v1.405c0 1.08.488 1.492 1.263 1.492.776 0 1.263-.368 1.263-1.708v-1.19c0-1.404-.487-1.923-1.595-1.923h-.82v-2.162h.953c.908 0 1.462-.39 1.462-1.6zm13.117 10.57H88.32c-.133-.389-.221-.626-.221-1.859v-2.378c0-1.405-.488-1.924-1.596-1.924h-.842v6.161h-2.437V4.673h3.678c2.526 0 3.612 1.146 3.612 3.48v1.19c0 1.556-.51 2.572-1.596 3.07 1.22.496 1.618 1.642 1.618 3.22v2.335c0 .735.022 1.275.266 1.837zm-3.967-12.97h-1.174v4.648h.953c.908 0 1.462-.39 1.462-1.6V8.39c0-1.08-.376-1.556-1.24-1.556zM44.699 24.871h.86l1.242 6.473 1.231-6.473h.785l-1.427 7.44h-1.253l-1.438-7.44zm6.34 3.295h1.863v.744h-1.863v2.647h2.287v.754H50.19v-7.44h3.137v.755H51.04v2.54zm4.542-1.87v6.015h-.763v-7.44h1.079l1.765 5.378v-5.378h.751v7.44h-.882l-1.95-6.015zm6.383 6.015h-.85v-6.685H59.71v-.755h3.66v.755h-1.405v6.685zm3.519-7.44v5.687c0 .67.272 1.073.893 1.073.61 0 .882-.404.882-1.073V24.87h.796v5.644c0 1.127-.534 1.881-1.71 1.881-1.166 0-1.7-.754-1.7-1.88V24.87h.839zm4.128 0h1.7c1.198 0 1.699.596 1.699 1.701v.606c0 .818-.294 1.328-.948 1.53.697.202.959.755.959 1.552v1.159c0 .33.01.637.152.892h-.86c-.098-.212-.142-.403-.142-.903v-1.17c0-.839-.403-1.105-1.111-1.105h-.6v3.178h-.85v-7.44zm.85 3.508h.631c.676 0 1.079-.213 1.079-1.02v-.713c0-.67-.25-1.02-.882-1.02h-.828v2.753zm5.01-.213h1.863v.744h-1.863v2.647h2.288v.754h-3.137v-7.44h3.137v.755h-2.288v2.54z"/>
        </g>
        <path fill="url(#a)" d="M0 21.51v-2.88c.346.029.75.029 1.096.029 1.009 0 1.816-.375 1.816-1.93V1.35h3.171v15.149c0 4.032-2.162 5.069-4.555 5.069-.577 0-1.009 0-1.528-.058z" transform="translate(5.406 7.2)"/>
        <path fill="#6F219A" d="M11.036 8.497h.453v4.694H9.46v-1.08c0-1.542.532-2.764 1.576-3.614zm.453 12.306v3.235c0 .822-.12 1.523-.337 2.118-1.121-.852-1.692-2.106-1.692-3.705v-1.648h2.03z"/>
        <path fill="url(#b)" d="M11.24 6.307V5.184c0-1.814-.634-2.304-1.643-2.304s-1.643.547-1.643 1.987v1.296H4.955V5.07C4.955 1.843 6.57 0 9.684 0s4.728 1.843 4.728 5.069v.518c0 2.16-.692 3.514-2.22 4.147 1.586.692 2.22 2.19 2.22 4.234v1.584c0 3.226-1.614 5.069-4.728 5.069s-4.729-1.843-4.729-5.069v-1.67h2.999v1.872c0 1.44.634 1.987 1.643 1.987 1.01 0 1.644-.49 1.644-2.275v-1.584c0-1.872-.635-2.564-2.076-2.564H8.098v-2.88h1.24c1.182 0 1.903-.518 1.903-2.13z" transform="translate(5.406 7.2)"/>
        <path fill="url(#b)" d="M11.24 6.307V5.184c0-1.814-.634-2.304-1.643-2.304s-1.643.547-1.643 1.987v1.296H4.955V5.07C4.955 1.843 6.57 0 9.684 0s4.728 1.843 4.728 5.069v.518c0 2.16-.692 3.514-2.22 4.147 1.586.692 2.22 2.19 2.22 4.234v1.584c0 3.226-1.614 5.069-4.728 5.069s-4.729-1.843-4.729-5.069v-1.67h2.999v1.872c0 1.44.634 1.987 1.643 1.987 1.01 0 1.644-.49 1.644-2.275v-1.584c0-1.872-.635-2.564-2.076-2.564H8.098v-2.88h1.24c1.182 0 1.903-.518 1.903-2.13z" transform="translate(5.406 7.2)"/>
    </g>
</svg>
